<svg width="30" height="30" viewBox="0 0 30 30" fill="none" xmlns="http://www.w3.org/2000/svg">
<mask id="mask0_5076_16678" style="mask-type:alpha" maskUnits="userSpaceOnUse" x="0" y="0" width="30" height="30">
<rect width="30" height="30" fill="#D9D9D9"/>
</mask>
<g mask="url(#mask0_5076_16678)">
<path d="M13.2259 19.6538L21.6297 11.25L20.3125 9.93281L13.2259 17.0194L9.66344 13.4569L8.34625 14.7741L13.2259 19.6538ZM6.63469 25.625C6.01135 25.625 5.47885 25.4043 5.03719 24.9628C4.59573 24.5211 4.375 23.9886 4.375 23.3653V6.63469C4.375 6.01135 4.59573 5.47885 5.03719 5.03719C5.47885 4.59573 6.01135 4.375 6.63469 4.375H12.1972C12.2757 3.68104 12.5786 3.09094 13.1059 2.60469C13.633 2.11823 14.2644 1.875 15 1.875C15.7435 1.875 16.379 2.11823 16.9063 2.60469C17.4335 3.09094 17.7324 3.68104 17.8028 4.375H23.3653C23.9886 4.375 24.5211 4.59573 24.9628 5.03719C25.4043 5.47885 25.625 6.01135 25.625 6.63469V23.3653C25.625 23.9886 25.4043 24.5211 24.9628 24.9628C24.5211 25.4043 23.9886 25.625 23.3653 25.625H6.63469ZM6.63469 23.75H23.3653C23.4616 23.75 23.5497 23.7099 23.6297 23.6297C23.7099 23.5497 23.75 23.4616 23.75 23.3653V6.63469C23.75 6.53844 23.7099 6.45031 23.6297 6.37031C23.5497 6.2901 23.4616 6.25 23.3653 6.25H6.63469C6.53844 6.25 6.45031 6.2901 6.37031 6.37031C6.2901 6.45031 6.25 6.53844 6.25 6.63469V23.3653C6.25 23.4616 6.2901 23.5497 6.37031 23.6297C6.45031 23.7099 6.53844 23.75 6.63469 23.75ZM15.6719 5.16719C15.849 4.9901 15.9375 4.76614 15.9375 4.49531C15.9375 4.22448 15.849 4.00052 15.6719 3.82344C15.4948 3.64635 15.2708 3.55781 15 3.55781C14.7292 3.55781 14.5052 3.64635 14.3281 3.82344C14.151 4.00052 14.0625 4.22448 14.0625 4.49531C14.0625 4.76614 14.151 4.9901 14.3281 5.16719C14.5052 5.34427 14.7292 5.43281 15 5.43281C15.2708 5.43281 15.4948 5.34427 15.6719 5.16719Z" fill="currentColor"/>
</g>
</svg>
