<svg width="20" height="20" viewBox="0 0 20 20" fill="none" xmlns="http://www.w3.org/2000/svg">
<mask id="mask0_10047_1127" style="mask-type:alpha" maskUnits="userSpaceOnUse" x="0" y="0" width="20" height="20">
<rect width="20" height="20" fill="#D9D9D9"/>
</mask>
<g mask="url(#mask0_10047_1127)">
<path d="M5.25646 17.9166C4.83549 17.9166 4.47917 17.7708 4.1875 17.4791C3.89583 17.1874 3.75 16.8311 3.75 16.4101V3.58971C3.75 3.16874 3.89583 2.81242 4.1875 2.52075C4.47917 2.22909 4.83549 2.08325 5.25646 2.08325H11.875L16.25 6.45825V16.4101C16.25 16.8311 16.1042 17.1874 15.8125 17.4791C15.5208 17.7708 15.1645 17.9166 14.7435 17.9166H5.25646ZM11.25 7.08325V3.33325H5.25646C5.19229 3.33325 5.13354 3.35999 5.08021 3.41346C5.02674 3.46679 5 3.52554 5 3.58971V16.4101C5 16.4743 5.02674 16.533 5.08021 16.5864C5.13354 16.6398 5.19229 16.6666 5.25646 16.6666H14.7435C14.8077 16.6666 14.8665 16.6398 14.9198 16.5864C14.9733 16.533 15 16.4743 15 16.4101V7.08325H11.25Z" fill="currentColor"/>
</g>
</svg>
