<svg width="20" height="20" viewBox="0 0 20 20" fill="none" xmlns="http://www.w3.org/2000/svg">
<mask id="mask0_10053_2296" style="mask-type:alpha" maskUnits="userSpaceOnUse" x="0" y="0" width="20" height="20">
<rect width="20" height="20" fill="#D9D9D9"/>
</mask>
<g mask="url(#mask0_10053_2296)">
<path d="M12.5 17.0512L7.50002 15.3012L3.91356 16.6889C3.66787 16.7841 3.4403 16.7569 3.23085 16.6073C3.02141 16.4577 2.91669 16.2531 2.91669 15.9935V5.06415C2.91669 4.89956 2.96078 4.75186 3.04898 4.62102C3.13703 4.49019 3.26071 4.3954 3.42002 4.33665L7.50002 2.94873L12.5 4.69873L16.0865 3.31102C16.3322 3.21588 16.5597 3.23908 16.7692 3.38061C16.9786 3.52213 17.0834 3.72005 17.0834 3.97436V14.9679C17.0834 15.1378 17.0353 15.2868 16.9392 15.415C16.8429 15.5432 16.7126 15.6366 16.5481 15.6954L12.5 17.0512ZM11.875 15.5225V5.77248L8.12502 4.46144V14.2114L11.875 15.5225ZM13.125 15.5225L15.8334 14.625V4.74998L13.125 5.77248V15.5225ZM4.16669 15.25L6.87502 14.2114V4.46144L4.16669 5.37498V15.25Z" fill="currentColor"/>
</g>
</svg>
